<svg width="142" height="122" viewBox="0 0 142 122" fill="none" xmlns="http://www.w3.org/2000/svg">
<g filter="url(#filter0_i_0_1)">
<path d="M85.5249 104.325C81.8249 112.125 74.4249 115.025 70.2249 113.225C65.8249 111.925 64.8249 105.925 65.5249 96.9249C66.3249 88.0249 69.6249 79.5249 74.3249 64.7249L75.2249 61.7249C79.8249 65.6249 89.1249 71.9249 91.5249 73.2249C97.6249 76.6249 106.625 64.7249 102.425 57.8249C102.425 57.8249 102.125 59.6249 100.825 59.9249C96.2249 61.6249 83.5249 53.3249 78.8249 51.4249C82.5249 40.9249 85.8249 29.9249 89.6249 20.0249C99.9249 21.3249 105.425 21.5249 113.325 22.8249C111.025 28.9249 106.825 39.9249 115.725 43.0249C122.225 45.2249 126.325 39.2249 126.325 39.2249C123.325 35.1249 124.025 30.0249 125.425 25.4249C133.225 24.7249 140.225 19.4249 140.825 11.0249C141.325 5.92489 138.925 0.824893 132.825 1.02489C125.425 1.22489 118.625 10.5249 115.925 16.4249C106.525 14.5249 101.125 13.9249 90.8249 11.8249C90.6249 6.12489 79.8249 1.02489 75.6249 8.02489C65.0249 6.92489 54.0249 4.62489 43.6249 6.02489C28.7249 7.82489 14.6249 17.1249 7.42488 30.4249C0.024883 44.9249 3.82488 70.5249 22.1249 73.6249C31.7249 75.3249 41.9249 70.2249 46.2249 61.3249C48.3249 57.5249 49.2249 53.3249 48.7249 51.5249C48.0249 49.5249 46.8249 48.5249 45.1249 48.5249C38.9249 47.8249 40.0249 55.0249 39.1249 59.2249C37.6249 65.6249 32.1249 70.9249 25.3249 71.2249C18.7249 71.5249 13.9249 65.6249 11.6249 57.5249C6.52488 38.8249 22.6249 20.2249 38.9249 16.5249C52.8249 13.6249 69.5249 16.5249 72.7249 17.1249C69.8249 26.6249 66.5249 35.7249 63.4249 45.5249C50.7249 41.0249 32.3249 43.7249 25.8249 52.4249C34.2249 43.3249 52.3249 45.2249 61.8249 52.0249C58.8249 62.3249 56.3249 72.1249 54.3249 82.6249C52.1249 94.4249 52.1249 107.825 63.0249 112.925C80.8249 121.225 85.5249 104.325 85.5249 104.325ZM127.725 18.8249C128.925 14.6249 131.425 8.62489 134.525 5.42489C137.925 2.22489 139.925 8.62489 139.025 12.8249C137.925 19.0249 133.125 19.3249 127.725 18.8249Z" fill="#DB2777"/>
</g>
<defs>
<filter id="filter0_i_0_1" x="0.0248871" y="0.824894" width="141.3" height="124.4" filterUnits="userSpaceOnUse" color-interpolation-filters="sRGB">
<feFlood flood-opacity="0" result="BackgroundImageFix"/>
<feBlend mode="normal" in="SourceGraphic" in2="BackgroundImageFix" result="shape"/>
<feColorMatrix in="SourceAlpha" type="matrix" values="0 0 0 0 0 0 0 0 0 0 0 0 0 0 0 0 0 0 127 0" result="hardAlpha"/>
<feOffset dy="4"/>
<feGaussianBlur stdDeviation="2"/>
<feComposite in2="hardAlpha" operator="arithmetic" k2="-1" k3="1"/>
<feColorMatrix type="matrix" values="0 0 0 0 0 0 0 0 0 0 0 0 0 0 0 0 0 0 0.25 0"/>
<feBlend mode="normal" in2="shape" result="effect1_innerShadow_0_1"/>
</filter>
</defs>
</svg>
