<svg width="137" height="117" viewBox="0 0 137 117" fill="none" xmlns="http://www.w3.org/2000/svg">
<g filter="url(#filter0_i_0_1)">
<path d="M82.9489 100.277C79.3969 107.765 72.2929 110.549 68.2609 108.821C64.0369 107.573 63.0769 101.813 63.7489 93.1729C64.5169 84.6289 67.6849 76.4689 72.1969 62.2609L73.0609 59.3809C77.4769 63.1249 86.4049 69.1729 88.7089 70.4209C94.5649 73.6849 103.205 62.2609 99.1729 55.6369C99.1729 55.6369 98.8849 57.3649 97.6369 57.6529C93.2209 59.2849 81.0289 51.3169 76.5169 49.4929C80.0689 39.4129 83.2369 28.8529 86.8849 19.3489C96.7729 20.5969 102.053 20.7889 109.637 22.0369C107.429 27.8929 103.397 38.4529 111.941 41.4289C118.181 43.5409 122.117 37.7809 122.117 37.7809C119.237 33.8449 119.909 28.9489 121.253 24.5329C128.741 23.8609 135.461 18.7729 136.037 10.7089C136.517 5.81289 134.213 0.916893 128.357 1.10889C121.253 1.30089 114.725 10.2289 112.133 15.8929C103.109 14.0689 97.9249 13.4929 88.0369 11.4769C87.8449 6.00489 77.4769 1.10889 73.4449 7.82889C63.2689 6.77289 52.7089 4.56489 42.7249 5.90889C28.4209 7.63689 14.8849 16.5649 7.97288 29.3329C0.868883 43.2529 4.51688 67.8289 22.0849 70.8049C31.3009 72.4369 41.0929 67.5409 45.2209 58.9969C47.2369 55.3489 48.1009 51.3169 47.6209 49.5889C46.9489 47.6689 45.7969 46.7089 44.1649 46.7089C38.2129 46.0369 39.2689 52.9489 38.4049 56.9809C36.9649 63.1249 31.6849 68.2129 25.1569 68.5009C18.8209 68.7889 14.2129 63.1249 12.0049 55.3489C7.10888 37.3969 22.5649 19.5409 38.2129 15.9889C51.5569 13.2049 67.5889 15.9889 70.6609 16.5649C67.8769 25.6849 64.7089 34.4209 61.7329 43.8289C49.5409 39.5089 31.8769 42.1009 25.6369 50.4529C33.7009 41.7169 51.0769 43.5409 60.1969 50.0689C57.3169 59.9569 54.9169 69.3649 52.9969 79.4449C50.8849 90.7729 50.8849 103.637 61.3489 108.533C78.4369 116.501 82.9489 100.277 82.9489 100.277ZM123.461 18.1969C124.613 14.1649 127.013 8.40489 129.989 5.33289C133.253 2.26089 135.173 8.40489 134.309 12.4369C133.253 18.3889 128.645 18.6769 123.461 18.1969Z" fill="#DB2777"/>
</g>
<defs>
<filter id="filter0_i_0_1" x="0.868881" y="0.916895" width="135.648" height="119.584" filterUnits="userSpaceOnUse" color-interpolation-filters="sRGB">
<feFlood flood-opacity="0" result="BackgroundImageFix"/>
<feBlend mode="normal" in="SourceGraphic" in2="BackgroundImageFix" result="shape"/>
<feColorMatrix in="SourceAlpha" type="matrix" values="0 0 0 0 0 0 0 0 0 0 0 0 0 0 0 0 0 0 127 0" result="hardAlpha"/>
<feOffset dy="4"/>
<feGaussianBlur stdDeviation="2"/>
<feComposite in2="hardAlpha" operator="arithmetic" k2="-1" k3="1"/>
<feColorMatrix type="matrix" values="0 0 0 0 0 0 0 0 0 0 0 0 0 0 0 0 0 0 0.25 0"/>
<feBlend mode="normal" in2="shape" result="effect1_innerShadow_0_1"/>
</filter>
</defs>
</svg>
